<mxfile>
    <diagram id="k_gSMo2LD8OwgYPaJOnC" name="ページ1">
        <mxGraphModel dx="261" dy="496" grid="1" gridSize="10" guides="1" tooltips="1" connect="1" arrows="1" fold="1" page="1" pageScale="1" pageWidth="827" pageHeight="1169" math="0" shadow="0">
            <root>
                <mxCell id="0"/>
                <mxCell id="1" parent="0"/>
                <mxCell id="12" value="" style="rounded=0;whiteSpace=wrap;html=1;shadow=0;fontSize=16;" parent="1" vertex="1">
                    <mxGeometry x="280" y="200" width="440" height="400" as="geometry"/>
                </mxCell>
                <mxCell id="3" value="Webコンテナ:8000" style="text;html=1;resizable=0;autosize=1;align=center;verticalAlign=middle;points=[];fillColor=none;strokeColor=none;rounded=0;fontSize=16;" parent="1" vertex="1">
                    <mxGeometry x="330" y="210" width="150" height="20" as="geometry"/>
                </mxCell>
                <mxCell id="4" value="" style="rounded=0;whiteSpace=wrap;html=1;fontSize=18;" parent="1" vertex="1">
                    <mxGeometry x="320" y="240" width="160" height="200" as="geometry"/>
                </mxCell>
                <mxCell id="5" value="" style="rounded=0;whiteSpace=wrap;html=1;fontSize=18;" parent="1" vertex="1">
                    <mxGeometry x="520" y="240" width="160" height="200" as="geometry"/>
                </mxCell>
                <mxCell id="6" value="DBコンテナ:3306" style="text;html=1;resizable=0;autosize=1;align=center;verticalAlign=middle;points=[];fillColor=none;strokeColor=none;rounded=0;fontSize=16;" parent="1" vertex="1">
                    <mxGeometry x="530" y="210" width="140" height="20" as="geometry"/>
                </mxCell>
                <mxCell id="10" value="todo" style="shape=cylinder3;whiteSpace=wrap;html=1;boundedLbl=1;backgroundOutline=1;size=15;fontSize=16;" parent="1" vertex="1">
                    <mxGeometry x="560" y="280" width="80" height="120" as="geometry"/>
                </mxCell>
                <mxCell id="17" style="edgeStyle=orthogonalEdgeStyle;rounded=0;orthogonalLoop=1;jettySize=auto;html=1;fontSize=16;startArrow=none;endArrow=block;startFill=0;" parent="1" source="13" target="10" edge="1">
                    <mxGeometry relative="1" as="geometry">
                        <Array as="points">
                            <mxPoint x="510" y="330"/>
                            <mxPoint x="510" y="330"/>
                        </Array>
                    </mxGeometry>
                </mxCell>
                <mxCell id="35" style="edgeStyle=none;rounded=0;orthogonalLoop=1;jettySize=auto;html=1;exitX=0.75;exitY=1;exitDx=0;exitDy=0;entryX=0.75;entryY=0;entryDx=0;entryDy=0;fontSize=12;startArrow=none;startFill=0;endArrow=classic;endFill=1;" parent="1" source="13" target="15" edge="1">
                    <mxGeometry relative="1" as="geometry"/>
                </mxCell>
                <mxCell id="13" value="ToDo&lt;br&gt;アプリ" style="rounded=0;whiteSpace=wrap;html=1;shadow=0;fontSize=16;" parent="1" vertex="1">
                    <mxGeometry x="360" y="280" width="80" height="120" as="geometry"/>
                </mxCell>
                <mxCell id="14" value="ローカルPC（Mac）" style="text;html=1;resizable=0;autosize=1;align=center;verticalAlign=middle;points=[];fillColor=none;strokeColor=none;rounded=0;fontSize=16;" parent="1" vertex="1">
                    <mxGeometry x="420" y="620" width="160" height="20" as="geometry"/>
                </mxCell>
                <mxCell id="36" style="edgeStyle=none;rounded=0;orthogonalLoop=1;jettySize=auto;html=1;entryX=0.25;entryY=1;entryDx=0;entryDy=0;fontSize=12;startArrow=none;startFill=0;endArrow=classic;endFill=1;exitX=0.25;exitY=0;exitDx=0;exitDy=0;" parent="1" source="15" target="13" edge="1">
                    <mxGeometry relative="1" as="geometry"/>
                </mxCell>
                <mxCell id="15" value="Webブラウザ&lt;br&gt;（Chrome, Safali,...）" style="rounded=1;whiteSpace=wrap;html=1;shadow=0;fontSize=16;" parent="1" vertex="1">
                    <mxGeometry x="320" y="480" width="160" height="80" as="geometry"/>
                </mxCell>
                <mxCell id="18" style="edgeStyle=orthogonalEdgeStyle;rounded=0;orthogonalLoop=1;jettySize=auto;html=1;fontSize=16;startArrow=classic;endArrow=none;startFill=1;endFill=0;dashed=1;" parent="1" edge="1">
                    <mxGeometry relative="1" as="geometry">
                        <mxPoint x="440" y="350" as="sourcePoint"/>
                        <mxPoint x="560" y="350" as="targetPoint"/>
                        <Array as="points">
                            <mxPoint x="500" y="350"/>
                            <mxPoint x="500" y="350"/>
                        </Array>
                    </mxGeometry>
                </mxCell>
                <mxCell id="19" value="SQL" style="text;html=1;resizable=0;autosize=1;align=center;verticalAlign=middle;points=[];fillColor=none;strokeColor=none;rounded=0;fontSize=16;" parent="1" vertex="1">
                    <mxGeometry x="475" y="300" width="50" height="20" as="geometry"/>
                </mxCell>
                <mxCell id="20" value="データ" style="text;html=1;resizable=0;autosize=1;align=center;verticalAlign=middle;points=[];strokeColor=none;rounded=0;fontSize=16;" parent="1" vertex="1">
                    <mxGeometry x="470" y="360" width="60" height="20" as="geometry"/>
                </mxCell>
                <mxCell id="21" value="MariaDB:3306" style="text;html=1;resizable=0;autosize=1;align=center;verticalAlign=middle;points=[];fillColor=none;strokeColor=none;rounded=0;fontSize=16;" parent="1" vertex="1">
                    <mxGeometry x="540" y="250" width="120" height="20" as="geometry"/>
                </mxCell>
                <mxCell id="22" value="Django開発用サーバー:8000" style="text;html=1;resizable=0;autosize=1;align=center;verticalAlign=middle;points=[];fillColor=none;strokeColor=none;rounded=0;fontSize=12;" parent="1" vertex="1">
                    <mxGeometry x="315" y="250" width="170" height="20" as="geometry"/>
                </mxCell>
                <mxCell id="37" value="HTTPリクエスト" style="text;html=1;resizable=0;autosize=1;align=center;verticalAlign=middle;points=[];strokeColor=none;rounded=0;fontSize=12;rotation=-75;fillColor=#ffffff;" parent="1" vertex="1">
                    <mxGeometry x="290" y="430" width="110" height="20" as="geometry"/>
                </mxCell>
                <mxCell id="38" value="HTML" style="text;html=1;resizable=0;autosize=1;align=center;verticalAlign=middle;points=[];strokeColor=none;rounded=0;fontSize=12;rotation=73;fillColor=#ffffff;" parent="1" vertex="1">
                    <mxGeometry x="425" y="430" width="50" height="20" as="geometry"/>
                </mxCell>
            </root>
        </mxGraphModel>
    </diagram>
</mxfile>